<svg xmlns="http://www.w3.org/2000/svg" width="400" height="400" viewBox="0 0 400 400" role="img" aria-label="Pants">
<defs><linearGradient id="g" x1="0" y1="0" x2="1" y2="1"><stop offset="0" stop-color="#fefce8"/><stop offset="1" stop-color="#fef08a"/></linearGradient></defs>
<rect width="400" height="400" fill="url(#g)"/>
<svg x="115.99999999999999" y="88" xmlns="http://www.w3.org/2000/svg" width="168" height="168" viewBox="0 0 24 24" fill="none" stroke="#a16207" stroke-width="1.5" stroke-linecap="round" stroke-linejoin="round"  aria-hidden="true"><path d="M20.38 3.46 16 2a4 4 0 0 1-8 0L3.62 3.46a2 2 0 0 0-1.34 2.23l.58 3.47a1 1 0 0 0 .99.84H6v10c0 1.1.9 2 2 2h8a2 2 0 0 0 2-2V10h2.15a1 1 0 0 0 .99-.84l.58-3.47a2 2 0 0 0-1.34-2.23z"></path></svg>
<text x="50%" y="336" text-anchor="middle" font-family="system-ui, sans-serif" font-size="28.000000000000004" font-weight="600" fill="#a16207" opacity="0.8">Pants</text>
</svg>
